<?xml version="1.0" encoding="iso-8859-1"?>
<!-- Generator: Adobe Illustrator 19.0.0, SVG Export Plug-In . SVG Version: 6.00 Build 0)  -->
<svg version="1.1" id="Capa_1" xmlns="http://www.w3.org/2000/svg" xmlns:xlink="http://www.w3.org/1999/xlink" x="0px" y="0px"
	 viewBox="0 0 463 463" style="enable-background:new 0 0 463 463;" xml:space="preserve">
<g>
	<path d="M101.436,86.71H36.403c-4.142,0-7.5,3.358-7.5,7.5v65.027c0,4.142,3.358,7.5,7.5,7.5s7.5-3.358,7.5-7.5V101.71h57.532
		c4.142,0,7.5-3.358,7.5-7.5S105.578,86.71,101.436,86.71z"/>
	<path d="M426.596,86.71h-65.032c-4.142,0-7.5,3.358-7.5,7.5s3.358,7.5,7.5,7.5h57.532v57.527c0,4.142,3.358,7.5,7.5,7.5
		s7.5-3.358,7.5-7.5V94.21C434.096,90.068,430.738,86.71,426.596,86.71z"/>
	<path d="M426.596,296.258c-4.142,0-7.5,3.358-7.5,7.5v57.527h-57.532c-4.142,0-7.5,3.358-7.5,7.5s3.358,7.5,7.5,7.5h65.032
		c4.142,0,7.5-3.358,7.5-7.5v-65.027C434.096,299.615,430.738,296.258,426.596,296.258z"/>
	<path d="M101.435,361.285H43.903v-57.527c0-4.142-3.358-7.5-7.5-7.5s-7.5,3.358-7.5,7.5v65.027c0,4.142,3.358,7.5,7.5,7.5h65.032
		c4.142,0,7.5-3.358,7.5-7.5S105.577,361.285,101.435,361.285z"/>
	<path d="M439.5,57.806h-416c-12.958,0-23.5,10.542-23.5,23.5v300.387c0,12.958,10.542,23.5,23.5,23.5h416
		c12.958,0,23.5-10.542,23.5-23.5V81.306C463,68.348,452.458,57.806,439.5,57.806z M448,381.693c0,4.687-3.813,8.5-8.5,8.5h-416
		c-4.687,0-8.5-3.813-8.5-8.5V81.306c0-4.687,3.813-8.5,8.5-8.5h416c4.687,0,8.5,3.813,8.5,8.5V381.693z"/>
	<path d="M327.451,293.74c-1.508-10.56-8.65-19.447-18.64-23.193l-40.909-15.341v-12.104c9.217-10.812,14.452-25.395,14.452-40.524
		c-0.005-1.974-0.008-4.1-0.008-5.495c9.364-20.734,7.316-58.319,7.221-59.951c-0.115-1.99-1.018-3.853-2.508-5.176
		c-1.491-1.323-3.442-1.998-5.438-1.877c-6.335,0.383-14.84-1.722-23.85-3.954c-18.46-4.575-41.229-10.219-58.086,3.95
		c-11.666,0.469-17.942,5.907-21.204,10.6c-11.836,17.032-0.857,48.36,2.163,56.136v5.786c0,15.111,5.234,29.693,14.452,40.504
		v12.104l-40.909,15.341c-9.989,3.746-17.131,12.633-18.64,23.193l-3.052,21.365c-0.9,6.303,0.976,12.677,5.148,17.487
		s10.216,7.569,16.583,7.569h154.545c6.367,0,12.411-2.759,16.583-7.569s6.048-11.184,5.148-17.487L327.451,293.74z
		 M314.024,322.764c-1.341,1.546-3.206,2.397-5.251,2.397H154.227c-2.046,0-3.911-0.851-5.251-2.397
		c-1.34-1.545-1.919-3.513-1.63-5.538l3.052-21.365c0.733-5.131,4.203-9.449,9.057-11.27l45.775-17.166
		c2.927-1.098,4.867-3.896,4.867-7.022v-20.181c0-1.93-0.744-3.786-2.078-5.182c-7.863-8.228-12.374-20.053-12.374-32.443v-7.226
		c0-0.98-0.192-1.952-0.566-2.858c-4.173-10.124-10.71-34.023-4.28-43.277c0.736-1.06,2.914-4.194,10.515-4.194
		c0.33,0,0.67,0.006,1.021,0.019c2.069,0.071,4.068-0.71,5.537-2.164c11.062-10.944,28.972-6.504,46.292-2.212
		c7.217,1.788,14.148,3.506,20.651,4.162c0.168,13.213-0.83,35.633-6.668,47.171c-0.814,1.628-0.814,1.628-0.792,10.58
		c0,12.39-4.51,24.215-12.374,32.443c-1.334,1.396-2.078,3.252-2.078,5.182v20.181c0,3.126,1.939,5.925,4.867,7.022l45.775,17.166
		c4.854,1.82,8.324,6.138,9.057,11.27l3.052,21.365C315.943,319.251,315.364,321.219,314.024,322.764z"/>
</g>
<g>
</g>
<g>
</g>
<g>
</g>
<g>
</g>
<g>
</g>
<g>
</g>
<g>
</g>
<g>
</g>
<g>
</g>
<g>
</g>
<g>
</g>
<g>
</g>
<g>
</g>
<g>
</g>
<g>
</g>
</svg>
